<svg xmlns="http://www.w3.org/2000/svg" width="611.998" height="611.998"><path d="M472.778 0H139.222C111.794 0 89.53 22.25 89.53 49.678V562.32c0 27.428 22.25 49.678 49.692 49.678h333.555c27.441 0 49.692-22.25 49.692-49.678V49.678C522.471 22.265 500.206 0 472.778 0zM155.062 113.907c0-20.847 16.891-37.738 37.738-37.738h226.383c20.847 0 37.737 16.891 37.737 37.738v38.973c0 20.832-16.891 37.724-37.737 37.724H192.8c-20.847 0-37.738-16.892-37.738-37.724v-38.973zm77.988 399.302c0 12.495-10.141 22.648-22.648 22.648h-36.475c-12.495 0-22.634-10.155-22.634-22.648v-38.97c0-12.495 10.141-22.634 22.634-22.634h36.475c12.509 0 22.648 10.141 22.648 22.634v38.97zm0-113.822c0 12.495-10.141 22.648-22.648 22.648h-36.475c-12.495 0-22.634-10.155-22.634-22.648V360.4c0-12.495 10.141-22.647 22.634-22.647h36.475c12.509 0 22.648 10.154 22.648 22.647v38.987zm0-113.824c0 12.495-10.141 22.647-22.648 22.647h-36.475c-12.495 0-22.634-10.155-22.634-22.647v-38.987c0-12.495 10.141-22.648 22.634-22.648h36.475c12.509 0 22.648 10.155 22.648 22.648v38.987zm113.836 227.646c0 12.495-10.141 22.648-22.634 22.648h-36.504c-12.495 0-22.634-10.155-22.634-22.648v-38.97c0-12.495 10.141-22.634 22.634-22.634h36.504c12.495 0 22.634 10.141 22.634 22.634v38.97zm0-113.822c0 12.495-10.141 22.648-22.634 22.648h-36.504c-12.495 0-22.634-10.155-22.634-22.648V360.4c0-12.495 10.141-22.647 22.634-22.647h36.504c12.495 0 22.634 10.154 22.634 22.647v38.987zm0-113.824c0 12.495-10.141 22.647-22.634 22.647h-36.504c-12.495 0-22.634-10.155-22.634-22.647v-38.987c0-12.495 10.141-22.648 22.634-22.648h36.504c12.495 0 22.634 10.155 22.634 22.648v38.987zm113.809 227.646c0 12.495-10.141 22.648-22.634 22.648h-36.476c-12.509 0-22.647-10.155-22.647-22.648v-38.97c0-12.495 10.141-22.634 22.647-22.634h36.476c12.495 0 22.634 10.141 22.634 22.634v38.97zm0-113.822c0 12.495-10.141 22.648-22.634 22.648h-36.476c-12.509 0-22.647-10.155-22.647-22.648V360.4c0-12.495 10.141-22.647 22.647-22.647h36.476c12.495 0 22.634 10.154 22.634 22.647v38.987zm0-113.824c0 12.495-10.141 22.647-22.634 22.647h-36.476c-12.509 0-22.647-10.155-22.647-22.647v-38.987c0-12.495 10.141-22.648 22.647-22.648h36.476c12.495 0 22.634 10.155 22.634 22.648v38.987z"/></svg>